<svg xmlns="http://www.w3.org/2000/svg" xmlns:xlink="http://www.w3.org/1999/xlink" width="501" zoomAndPan="magnify" viewBox="0 0 375.75 479.999983" height="640" preserveAspectRatio="xMidYMid meet" version="1.0"><defs><clipPath id="20698d9113"><path d="M 20.070312 72.320312 L 355.097656 72.320312 L 355.097656 407.347656 L 20.070312 407.347656 Z M 20.070312 72.320312 " clip-rule="nonzero"/></clipPath></defs><g clip-path="url(#20698d9113)"><path fill="#16a34a" d="M 306.3125 121.433594 C 274.644531 89.761719 232.539062 72.320312 187.75 72.320312 C 142.957031 72.320312 100.851562 89.761719 69.183594 121.433594 C 37.511719 153.101562 20.070312 195.210938 20.070312 240 C 20.070312 284.785156 37.511719 326.894531 69.183594 358.5625 C 100.851562 390.234375 142.957031 407.675781 187.75 407.675781 C 232.539062 407.675781 274.644531 390.234375 306.3125 358.5625 C 337.984375 326.894531 355.425781 284.789062 355.425781 240 C 355.425781 195.207031 337.984375 153.101562 306.316406 121.433594 Z M 306.3125 121.433594 " fill-opacity="1" fill-rule="nonzero"/></g><path fill="#ffffff" d="M 227.792969 160.355469 C 229.105469 161.667969 230.347656 163.042969 231.527344 164.476562 C 232.703125 165.910156 233.804688 167.398438 234.835938 168.9375 C 235.867188 170.480469 236.820312 172.070312 237.695312 173.707031 C 238.566406 175.339844 239.359375 177.015625 240.070312 178.730469 C 240.78125 180.441406 241.402344 182.1875 241.941406 183.960938 C 242.480469 185.738281 242.929688 187.535156 243.292969 189.351562 C 243.652344 191.171875 243.925781 193.003906 244.109375 194.851562 C 244.289062 196.695312 244.378906 198.546875 244.378906 200.402344 C 244.378906 202.257812 244.289062 204.105469 244.109375 205.953125 C 243.925781 207.796875 243.652344 209.628906 243.292969 211.449219 C 242.929688 213.269531 242.480469 215.066406 241.941406 216.839844 C 241.402344 218.613281 240.78125 220.359375 240.070312 222.074219 C 239.359375 223.785156 238.566406 225.460938 237.695312 227.097656 C 236.820312 228.730469 235.867188 230.320312 234.835938 231.863281 C 233.804688 233.40625 232.703125 234.894531 231.527344 236.328125 C 230.347656 237.761719 229.105469 239.132812 227.792969 240.445312 C 226.480469 241.757812 225.109375 243 223.675781 244.175781 C 222.242188 245.355469 220.753906 246.457031 219.210938 247.488281 C 217.667969 248.519531 216.082031 249.46875 214.445312 250.34375 C 212.808594 251.21875 211.136719 252.011719 209.421875 252.722656 C 207.707031 253.429688 205.964844 254.054688 204.1875 254.59375 C 202.414062 255.132812 200.617188 255.582031 198.796875 255.945312 C 196.980469 256.304688 195.144531 256.578125 193.300781 256.757812 C 191.453125 256.941406 189.605469 257.03125 187.75 257.03125 C 185.894531 257.03125 184.042969 256.941406 182.199219 256.757812 C 180.351562 256.578125 178.519531 256.304688 176.703125 255.945312 C 174.882812 255.582031 173.085938 255.132812 171.3125 254.59375 C 169.535156 254.054688 167.792969 253.429688 166.078125 252.722656 C 164.363281 252.011719 162.691406 251.21875 161.054688 250.34375 C 159.417969 249.46875 157.828125 248.519531 156.289062 247.488281 C 154.746094 246.457031 153.257812 245.355469 151.824219 244.175781 C 150.390625 243 149.015625 241.757812 147.707031 240.445312 C 146.394531 239.132812 145.148438 237.761719 143.972656 236.328125 C 142.796875 234.894531 141.695312 233.40625 140.664062 231.863281 C 139.632812 230.320312 138.679688 228.730469 137.804688 227.097656 C 136.929688 225.460938 136.140625 223.785156 135.429688 222.074219 C 134.71875 220.359375 134.097656 218.613281 133.558594 216.839844 C 133.019531 215.066406 132.570312 213.269531 132.207031 211.449219 C 131.84375 209.628906 131.574219 207.796875 131.390625 205.953125 C 131.210938 204.105469 131.117188 202.257812 131.117188 200.402344 C 131.117188 198.546875 131.210938 196.695312 131.390625 194.851562 C 131.574219 193.003906 131.84375 191.171875 132.207031 189.351562 C 132.570312 187.535156 133.019531 185.738281 133.558594 183.960938 C 134.097656 182.1875 134.71875 180.441406 135.429688 178.730469 C 136.140625 177.015625 136.933594 175.339844 137.804688 173.707031 C 138.679688 172.070312 139.632812 170.480469 140.664062 168.9375 C 141.695312 167.398438 142.796875 165.910156 143.972656 164.476562 C 145.148438 163.042969 146.394531 161.667969 147.707031 160.355469 C 149.015625 159.046875 150.390625 157.800781 151.824219 156.625 C 153.257812 155.449219 154.746094 154.34375 156.289062 153.316406 C 157.828125 152.285156 159.417969 151.332031 161.054688 150.457031 C 162.691406 149.582031 164.363281 148.792969 166.078125 148.082031 C 167.792969 147.371094 169.535156 146.746094 171.3125 146.210938 C 173.085938 145.671875 174.882812 145.21875 176.703125 144.859375 C 178.519531 144.496094 180.351562 144.226562 182.199219 144.042969 C 184.042969 143.863281 185.894531 143.769531 187.75 143.769531 C 189.605469 143.769531 191.453125 143.863281 193.300781 144.042969 C 195.144531 144.226562 196.980469 144.496094 198.796875 144.859375 C 200.617188 145.21875 202.414062 145.671875 204.1875 146.210938 C 205.964844 146.746094 207.707031 147.371094 209.421875 148.082031 C 211.136719 148.792969 212.808594 149.582031 214.445312 150.457031 C 216.082031 151.332031 217.667969 152.285156 219.210938 153.316406 C 220.753906 154.34375 222.242188 155.449219 223.675781 156.625 C 225.109375 157.800781 226.480469 159.046875 227.792969 160.355469 Z M 227.792969 160.355469 " fill-opacity="1" fill-rule="nonzero"/><path fill="#ffffff" d="M 189.386719 282.195312 L 186.113281 282.195312 C 139.84375 282.195312 100.875 313.4375 89.132812 355.976562 C 115.722656 378.621094 150.164062 392.3125 187.75 392.3125 C 225.332031 392.3125 259.773438 378.621094 286.363281 355.976562 C 274.621094 313.4375 235.65625 282.195312 189.382812 282.195312 Z M 189.386719 282.195312 " fill-opacity="1" fill-rule="nonzero"/></svg>